<svg width="50" height="50" viewBox="0 0 50 50" fill="none" xmlns="http://www.w3.org/2000/svg">
<rect width="50" height="50" rx="3" fill="#00B1EB"/>
<path d="M32.0173 12.928V17.416H22.4633L22.3613 21.122C22.9393 20.918 23.5853 20.85 24.5033 20.85C29.3653 20.85 32.8333 23.876 32.8333 28.806C32.8333 34.246 28.9233 37.408 23.6533 37.408C19.5053 37.408 16.5813 35.334 15.5273 31.254L20.8653 30.03C21.1373 31.764 22.3953 32.92 24.1633 32.92C26.3393 32.92 27.7333 31.39 27.7333 29.316C27.7333 26.154 24.8433 25.338 22.1913 25.338C20.5253 25.338 18.7913 25.678 17.1933 26.222L17.4653 12.928H32.0173Z" fill="white"/>
</svg>
