<svg width="50" height="50" viewBox="0 0 50 50" fill="none" xmlns="http://www.w3.org/2000/svg">
<rect width="50" height="50" rx="3" fill="#00A98B"/>
<path d="M31.4391 26.314V21.894H33.1051C34.9751 21.894 36.9811 21.486 36.9811 19.208C36.9811 17.746 35.6551 16.692 33.9891 16.692C32.3911 16.692 31.3031 17.678 30.9971 18.936L25.3871 17.78C26.4411 13.598 29.8751 12 33.9551 12C38.2391 12 42.0811 14.074 42.0811 18.698C42.0811 21.35 40.6191 23.424 37.9671 23.968V24.07C40.8571 24.444 42.4891 26.892 42.4891 29.68C42.4891 34.508 38.5451 36.888 33.8191 36.888C29.5351 36.888 26.1691 34.984 25.1831 30.666L30.5551 29.408C30.8951 31.108 31.9491 32.196 34.1251 32.196C36.3351 32.196 37.3891 30.904 37.3891 29.102C37.3891 26.382 34.9071 26.314 32.6291 26.314H31.4391Z" fill="white"/>
<path d="M7 36.48V31.074L16.35 22.676C17.302 21.792 18.492 20.772 18.492 19.31C18.492 17.678 17.098 16.692 15.534 16.692C13.664 16.692 12.542 18.018 12.406 19.752L7.306 19.378C7.612 14.414 11.08 12 15.806 12C20.192 12 23.592 14.414 23.592 19.242C23.592 22.336 22.266 24.104 20.43 25.702L13.12 31.992H23.796V36.48H7Z" fill="white"/>
</svg>
