<?xml version="1.0" encoding="UTF-8"?>
<svg viewBox="0 0 50.97 38.23" xmlns="http://www.w3.org/2000/svg">
<rect width="50.97" height="38.23" fill="#0c8acc"/>
<path d="M13.59,11.53,8.1,16.37,4.82,12.58,13.75,5h5.41V32.41H13.59Z" fill="#fff"/>
<path d="M45.33,10.14H34.47l-.12,4.22a6.94,6.94,0,0,1,2.44-.31c5.53,0,9.47,3.44,9.47,9.05,0,6.18-4.44,9.78-10.44,9.78-4.71,0-8-2.36-9.24-7l6.07-1.39a3.68,3.68,0,0,0,3.75,3.28,3.88,3.88,0,0,0,4.06-3.69,2.67,2.67,0,0,0,0-.4c0-3.6-3.28-4.53-6.3-4.53a17.77,17.77,0,0,0-5.68,1L28.79,5H45.33Z" fill="#fff"/>
</svg>
