<svg width="50" height="50" viewBox="0 0 50 50" fill="none" xmlns="http://www.w3.org/2000/svg">
<rect width="50" height="50" rx="3" fill="#00B1EB"/>
<path d="M40.218 12.5V16.988H30.664L30.562 20.694C31.14 20.49 31.786 20.422 32.704 20.422C37.566 20.422 41.034 23.448 41.034 28.378C41.034 33.818 37.124 36.98 31.854 36.98C27.706 36.98 24.782 34.906 23.728 30.826L29.066 29.602C29.338 31.336 30.596 32.492 32.364 32.492C34.54 32.492 35.934 30.962 35.934 28.888C35.934 25.726 33.044 24.91 30.392 24.91C28.726 24.91 26.992 25.25 25.394 25.794L25.666 12.5H40.218Z" fill="white"/>
<path d="M15.031 36.572V18.212L10.203 22.462L7.31299 19.13L15.167 12.5H19.927V36.572H15.031Z" fill="white"/>
</svg>
