<?xml version="1.0" encoding="UTF-8"?>
<svg viewBox="0 0 50.97 38.23" xmlns="http://www.w3.org/2000/svg">
<rect width="50.97" height="38.23" fill="#ef8023"/>
<path d="M4.62,26.53,15.25,17c1.09-1,2.44-2.17,2.44-3.83a3.09,3.09,0,0,0-3.17-3h-.19a3.47,3.47,0,0,0-3.56,3.38v.09L5,13.23c.35-5.65,4.29-8.39,9.67-8.39,5,0,8.85,2.74,8.85,8.23a9,9,0,0,1-3.59,7.35l-8.32,7.15H23.72v5.11H4.62Z" fill="#fff"/>
<path d="M36.71,15.09a7.66,7.66,0,0,1,1.9-.28c5.14,0,8.58,4,8.58,8.94,0,5.64-4.49,9.39-10.21,9.39s-10.21-3.75-10.21-9.39c0-3.95,1.55-6.34,3.29-9.09l6-9.36h7.08ZM37,19.22a4.3,4.3,0,0,0-.41,8.59,2.8,2.8,0,0,0,.41,0,4.3,4.3,0,1,0,.41-8.59Z" fill="#fff"/>
</svg>
