<svg width="802" height="268" viewBox="0 0 802 268" fill="none" xmlns="http://www.w3.org/2000/svg">
<path d="M295.6 77.2H314.3V153.4C314.3 178.4 301.8 190 280.7 190C272.9 190 263.8 187.4 257.2 182.6L261.9 169.4C266.7 172 272.7 173.6 277.9 173.6C289 173.6 295.5 167.5 295.5 153V77.2H295.6Z" fill="white"/>
<path d="M335.4 156.7V106H353.5V155.1C353.5 166.2 361.1 174 372 174C383.4 174 393.2 164.4 393.2 150.8V106.1H411.3V188.2H393.2V177.4C387.6 185 378.7 190.1 368.3 190.1C348.5 190.1 335.4 177 335.4 156.7Z" fill="white"/>
<path d="M437.3 164.8C443.2 171.2 450.3 175.2 459.1 175.2C468.1 175.2 473.5 171.2 473.5 165C473.5 159 469.1 155.4 457.3 153C439.4 149.5 430.6 140.6 430.6 127.5C430.6 114.1 441.7 104.2 459.2 104.2C476.4 104.2 487.4 113.4 489.7 129.1H472.2C471.5 123.1 467.2 119.2 460.2 119.2C453.4 119.2 448.5 122.7 448.5 127.8C448.5 132.9 453.2 137.2 463.5 139.2C482.4 143 491.4 151.5 491.4 165.3C491.4 179.5 479.8 190.1 460 190.1C447.1 190.1 437.2 184.2 429.4 173.9L437.3 164.8Z" fill="white"/>
<path d="M537.3 160.8C537.3 169.9 541.2 174.2 551.5 174.2C553.9 174.2 557.1 174.1 559.1 173.8V187.1C555.8 188.9 550.8 190 545.9 190C528.6 190 519.2 180.7 519.2 161.6V121.9H503.5V106.1H519.3V86.5L537.4 82.4V106.1H558.3V121.9H537.4L537.3 160.8Z" fill="white"/>
<path d="M588 72.6C594.4 72.6 599.2 77.4 599.2 83.7C599.2 89.9 594.3 94.7 588 94.7C581.6 94.7 576.8 89.9 576.8 83.7C576.9 77.4 581.7 72.6 588 72.6ZM579 106.1H597.1V188.2H579V106.1Z" fill="white"/>
<path d="M667.7 82.5C665.7 82.2 662.8 82 660.4 82C647.7 82 642.7 88.8 642.7 100.9V106.1H667.7V115.6H642.7V188.2H632V115.6H615V106.1H632V100.7C632 82.2 641 72.5 659.8 72.5C662.7 72.5 665.8 72.8 667.9 73.1L667.7 82.5Z" fill="white"/>
<path d="M689.6 74.8C693.9 74.8 697.3 78.1001 697.3 82.6001C697.3 86.9001 694 90.2001 689.6 90.2001C685.2 90.2001 681.9 86.9001 681.9 82.6001C681.9 78.1001 685.3 74.8 689.6 74.8ZM684.2 106.1H695V188.2H684.2V106.1Z" fill="white"/>
<path d="M738.1 162.8C738.1 174.4 743.2 180.4 755.6 180.4C758 180.4 761.2 180.3 763.2 179.9V188.1C760.6 189.4 756.7 189.9 753.2 189.9C736.3 189.9 727.4 181 727.4 162.9V115.3H709.8V105.8H727.4V85.1L738.2 82.2V105.9H762.3V115.4H738.2L738.1 162.8Z" fill="white"/>
<path d="M121 41.6C110.1 41.9 99.5 42.9 89 44.7C85.9 45.2 82.9 45.8 79.9 46.4C79.8 46.4 79.6 46.5 79.5 46.5C77.6 46.9 75.6999 47.4 73.6999 47.8C72.1999 48.1 70.6999 48.5 69.1999 48.9C60.3999 51.1 51.8 53.9 43.5 57.2C40.5 58.7 39.8 60.6 39.5 65.6C39.3 69.5 38.2 96 38.2 108.1C38.2 119.1 38.1999 145.1 38.2999 146.8C38.2999 146.9 38.2999 147.1 38.2999 147.3C38.2999 147.4 38.2999 147.6 38.2999 147.8C38.2999 148.6 38.4999 151.3 38.7999 153.1C38.9999 154.6 39.2999 156.2 39.5999 157.8C42.0999 169 48 181 55 188.8C59.5 194.1 64.5 199.4 69.5 203.9C74.4 208.3 79.6 212.3 85 216.1C85.5 216.5 86.0999 216.8 86.6999 217.2C87.6999 217.9 88.6999 218.5 89.6999 219.1C89.8999 219.2 90.2 219.4 90.4 219.5C91.8 220.4 93.2999 221.3 94.6999 222.2C94.9999 222.4 95.3999 222.6 95.6999 222.8C97.5999 223.9 99.4 225 101.4 226.1L101.5 226.2L101.8 226.3C101.8 226.3 104.3 227.6 107.9 229.4C109.1 230 110.4 230.7 111.7 231.3C112.6 231.8 113.5 232.2 114.4 232.6C116.7 233.7 118.9 234.7 121.3 235.7C121.4 235.8 121.6 235.8 121.7 235.9C122.8 236.4 123.7 236.7 124.5 237C124.6 237 124.6 237 124.6 237.1C124.8 237.2 124.9 237.2 125.1 237.3C125.3 237.4 125.5 237.4 125.7 237.5C125.8 237.5 125.8 237.6 125.9 237.6C126 237.7 126.2 237.7 126.4 237.7C126.5 237.7 126.5 237.7 126.6 237.7C126.9 237.8 127.3 237.8 127.6 237.8C127.9 237.8 128.3 237.7 128.6 237.7C128.7 237.7 128.7 237.7 128.8 237.7C128.9 237.7 129.1 237.6 129.3 237.6C129.4 237.6 129.4 237.5 129.5 237.5C129.7 237.4 129.9 237.4 130.1 237.3C130.3 237.2 130.4 237.2 130.6 237.1C130.7 237.1 130.7 237.1 130.7 237C131.5 236.7 132.4 236.3 133.5 235.9C133.6 235.8 133.8 235.8 133.9 235.7C136.2 234.7 138.5 233.6 140.8 232.6C141.7 232.2 142.6 231.7 143.5 231.3C144.8 230.6 146.1 230 147.3 229.4C150.4 227.9 152.7 226.6 153.3 226.3C153.4 226.2 153.4 226.2 153.4 226.2L153.7 226.1C153.8 226.1 153.8 226 153.8 226C155.7 224.9 157.6 223.9 159.5 222.7C159.8 222.5 160.2 222.3 160.5 222.1C162 221.2 163.4 220.3 164.8 219.4C165 219.3 165.3 219.1 165.5 219C166.5 218.3 167.5 217.7 168.5 217.1C169 216.7 169.6 216.4 170.2 216C174.9 212.7 179.5 209.2 183.8 205.4L170.1 191.7L165.8 187.4L163.7 185.3L160 181.6C158.9 182.3 157.9 183 156.8 183.6C156.5 183.7 156.3 183.9 156.1 184C153.9 185.3 151.6 186.3 149.2 187.3C148.9 187.4 148.7 187.5 148.4 187.6C147.2 188.1 146 188.5 144.8 188.9C143.6 189.3 142.3 189.6 141.1 189.9C140.8 190 140.5 190 140.2 190.1C138.9 190.4 137.7 190.6 136.4 190.8C135.1 191 133.8 191.1 132.5 191.3C132.2 191.3 131.8 191.4 131.6 191.4C130.3 191.5 129 191.5 127.7 191.5C126.4 191.5 125 191.4 123.8 191.4C123.5 191.4 123.1 191.3 122.9 191.3C121.6 191.2 120.3 191 119 190.8C117.7 190.6 116.5 190.3 115.2 190.1C114.9 190 114.6 190 114.3 189.9C113 189.6 111.8 189.3 110.6 188.9C109.4 188.5 108.2 188.1 107 187.6C106.7 187.5 106.5 187.4 106.2 187.3C103.9 186.4 101.5 185.2 99.3 184C99 183.9 98.7999 183.7 98.5999 183.6C97.4999 182.9 96.4 182.3 95.4 181.6C93.8 180.5 92.1999 179.3 90.6999 178.1C86.7999 174.8 83.3 171.1 80.4 166.9C78.7 164.6 77.3 162.1 76 159.5V159.4C75.4 158.1 74.8 156.9 74.3 155.5C74.3 155.4 74.1999 155.4 74.1999 155.3C73.6999 154 73.2 152.8 72.8 151.4C72.8 151.3 72.6999 151.3 72.6999 151.2C72.2999 149.9 71.8999 148.6 71.5999 147.3C71.4999 147.1 71.5 146.9 71.5 146.6C71.2 145.3 71 144.1 70.8 142.9C70.8 142.8 70.6999 142.7 70.6999 142.6C70.4999 141.3 70.3999 139.9 70.1999 138.6C70.1999 138.3 70.0999 138 70.0999 137.7C69.9999 136.4 70 135 70 133.6C70 133.6 70 133.6 70 133.5C70 132 70.0999 130.6 70.1999 129.1C70.1999 128.7 70.3 128.3 70.3 127.9C70.4 126.8 70.5999 125.8 70.6999 124.7C70.7999 124.3 70.8 123.9 70.9 123.5C71.1 122.4 71.3999 121.2 71.5999 120C71.6999 119.8 71.6999 119.5 71.6999 119.3C71.9999 117.9 72.4 116.5 72.9 115.2C73.5 113.4 74.2 111.6 75 109.9C75.1 109.7 75.2 109.5 75.3 109.3C76.1 107.6 76.9 106 77.8 104.4C77.9 104.3 77.9 104.2 78 104.1C78.9 102.5 79.9999 100.9 81.0999 99.4C81.1999 99.3 81.3 99.1 81.4 98.9C82.5 97.4 83.7 96 84.9 94.6C85.6 93.7 86.3999 93 87.1999 92.2C87.8999 91.5 88.6 90.9 89.3 90.3C89.7 90 90.1 89.6 90.5 89.2C90.6 89.1 90.8 89 90.9 88.9C99.7 81.7 110.6 76.9 122.5 75.9C124.2 75.8 125.9 75.7 127.7 75.7C141.7 75.7 154.5 80.6 164.5 88.9C164.6 89 164.8 89.1 164.9 89.2C165.3 89.5 165.7 89.9 166.1 90.3C166.8 90.9 167.5 91.6 168.2 92.2C169 93 169.8 93.8 170.5 94.6C171.8 96 172.9 97.5 174 98.9C174.1 99 174.2 99.2 174.3 99.4C175.4 100.9 176.4 102.5 177.4 104.1C177.5 104.2 177.5 104.3 177.6 104.4C178.5 106 179.3 107.7 180.1 109.3C180.2 109.5 180.3 109.7 180.4 109.9C181.2 111.6 181.9 113.4 182.5 115.2C183 116.5 183.4 117.9 183.7 119.3C183.8 119.5 183.8 119.8 183.8 120C184.1 121.1 184.3 122.3 184.5 123.5C184.6 123.9 184.6 124.3 184.7 124.7C184.9 125.8 185 126.8 185.1 127.9C185.2 128.3 185.2 128.7 185.2 129.1C185.3 130.6 185.4 132 185.4 133.5C185.4 133.5 185.4 133.5 185.4 133.6C185.4 134.9 185.3 136.3 185.3 137.7C185.3 138 185.2 138.3 185.2 138.6C185.1 139.9 184.9 141.3 184.7 142.6C184.7 142.7 184.6 142.8 184.6 142.9C184.4 144.2 184.1 145.4 183.9 146.6C183.8 146.8 183.8 147 183.8 147.3C183.5 148.6 183.1 150 182.7 151.2C182.7 151.3 182.6 151.3 182.6 151.4C182.2 152.7 181.7 154 181.2 155.3C181.2 155.4 181.1 155.4 181.1 155.5C180.6 156.8 180 158.1 179.4 159.4V159.5C178.1 162.1 176.7 164.5 175 166.9L175.9 167.8L176.5 168.4L185.6 177.5L198.5 190.4C200.1 188.7 200.8 187.7 200.8 187.7C208.4 178.8 214.6 165 216.2 153.1C216.4 151.4 216.5 149.6 216.5 148C216.6 146.5 216.6 143.7 216.6 142.1C216.5 139.6 216.6 116.6 216.6 116.6V111.9C216.6 111.9 216.6 114 216.6 108.4C216.6 102.8 215.5 69.9 215.3 65.9C214.6 60.7 213.9 58.8 210.8 57.3C202.4 54 193.8 51.3 184.9 49C183.4 48.6 181.9 48.3 180.4 47.9C178.5 47.4 176.6 47 174.6 46.6C174.5 46.6 174.3 46.5 174.2 46.5C171.2 45.9 168.1 45.3 165.1 44.8C154.7 43.1 144 42.1 133.1 41.7C129.1 41.5 126.1 41.5 121 41.6Z" fill="white"/>
<path d="M127.3 172.4C148.784 172.4 166.2 154.984 166.2 133.5C166.2 112.016 148.784 94.6 127.3 94.6C105.816 94.6 88.3999 112.016 88.3999 133.5C88.3999 154.984 105.816 172.4 127.3 172.4Z" fill="white"/>
</svg>
